<mxfile host="app.diagrams.net" agent="Mozilla/5.0 (X11; Ubuntu; Linux x86_64; rv:137.0) Gecko/20100101 Firefox/137.0" version="26.2.14">
  <diagram id="6a731a19-8d31-9384-78a2-239565b7b9f0" name="Page-1">
    <mxGraphModel dx="2431" dy="1361" grid="1" gridSize="10" guides="1" tooltips="1" connect="1" arrows="1" fold="1" page="1" pageScale="1" pageWidth="1169" pageHeight="827" background="none" math="0" shadow="0">
      <root>
        <mxCell id="0" />
        <mxCell id="1" parent="0" />
        <mxCell id="1350" value="Industry" style="ellipse;whiteSpace=wrap;html=1;shadow=0;fontFamily=Helvetica;fontSize=20;fontColor=#FFFFFF;align=center;strokeWidth=3;fillColor=#1699D3;strokeColor=none;" parent="1" vertex="1">
          <mxGeometry x="503.5" y="696.5" width="120" height="120" as="geometry" />
        </mxCell>
        <mxCell id="1351" value="Academia" style="ellipse;whiteSpace=wrap;html=1;shadow=0;fontFamily=Helvetica;fontSize=20;fontColor=#FFFFFF;align=center;strokeWidth=3;fillColor=#F08705;strokeColor=none;gradientColor=none;" parent="1" vertex="1">
          <mxGeometry x="1040" y="430" width="120" height="120" as="geometry" />
        </mxCell>
        <mxCell id="1352" value="Universities" style="ellipse;whiteSpace=wrap;html=1;shadow=0;fontFamily=Helvetica;fontSize=20;fontColor=#FFFFFF;align=center;strokeWidth=3;fillColor=#E85642;strokeColor=none;" parent="1" vertex="1">
          <mxGeometry x="1550" y="755" width="120" height="120" as="geometry" />
        </mxCell>
        <mxCell id="1357" value="Ant" style="rounded=1;fillColor=#f5af58;strokeColor=none;strokeWidth=3;shadow=0;html=1;fontColor=#FFFFFF;" parent="1" vertex="1">
          <mxGeometry x="910" y="600" width="120" height="40" as="geometry" />
        </mxCell>
        <mxCell id="1358" value="Dolphin" style="rounded=1;fillColor=#64BBE2;strokeColor=none;strokeWidth=3;shadow=0;html=1;fontColor=#FFFFFF;" parent="1" vertex="1">
          <mxGeometry x="409.5" y="866.5" width="130" height="40" as="geometry" />
        </mxCell>
        <mxCell id="1359" style="endArrow=none;strokeWidth=6;strokeColor=#1699D3;html=1;" parent="1" source="1515" target="1350" edge="1">
          <mxGeometry relative="1" as="geometry" />
        </mxCell>
        <mxCell id="1360" style="endArrow=none;strokeWidth=6;strokeColor=#f08705;html=1;" parent="1" source="1515" target="1351" edge="1">
          <mxGeometry relative="1" as="geometry" />
        </mxCell>
        <mxCell id="1361" style="endArrow=none;strokeWidth=6;strokeColor=#E85642;html=1;" parent="1" source="1515" target="1352" edge="1">
          <mxGeometry relative="1" as="geometry" />
        </mxCell>
        <mxCell id="1363" style="endArrow=none;strokeWidth=6;strokeColor=#736CA8;html=1;" parent="1" source="1515" target="1516" edge="1">
          <mxGeometry relative="1" as="geometry" />
        </mxCell>
        <mxCell id="1367" value="Lion" style="rounded=1;fillColor=#64BBE2;strokeColor=none;strokeWidth=3;shadow=0;html=1;fontColor=#FFFFFF;" parent="1" vertex="1">
          <mxGeometry x="710" y="746.5" width="130" height="40" as="geometry" />
        </mxCell>
        <mxCell id="1368" value="Elephant" style="rounded=1;fillColor=#64BBE2;strokeColor=none;strokeWidth=3;shadow=0;html=1;fontColor=#FFFFFF;" parent="1" vertex="1">
          <mxGeometry x="348.5" y="816.5" width="130" height="40" as="geometry" />
        </mxCell>
        <mxCell id="1369" value="Cat" style="rounded=1;fillColor=#64BBE2;strokeColor=none;strokeWidth=3;shadow=0;html=1;fontColor=#FFFFFF;" parent="1" vertex="1">
          <mxGeometry x="310" y="736.5" width="130" height="40" as="geometry" />
        </mxCell>
        <mxCell id="1370" value="Giraffe" style="rounded=1;fillColor=#64BBE2;strokeColor=none;strokeWidth=3;shadow=0;html=1;fontColor=#FFFFFF;" parent="1" vertex="1">
          <mxGeometry x="328.5" y="671.5" width="130" height="40" as="geometry" />
        </mxCell>
        <mxCell id="1371" value="Dog" style="rounded=1;fillColor=#64BBE2;strokeColor=none;strokeWidth=3;shadow=0;html=1;fontColor=#FFFFFF;" parent="1" vertex="1">
          <mxGeometry x="360" y="611.5" width="130" height="40" as="geometry" />
        </mxCell>
        <mxCell id="1372" value="Donkey" style="rounded=1;fillColor=#64BBE2;strokeColor=none;strokeWidth=3;shadow=0;html=1;fontColor=#FFFFFF;" parent="1" vertex="1">
          <mxGeometry x="435" y="565" width="130" height="40" as="geometry" />
        </mxCell>
        <mxCell id="1373" value="Leopard" style="rounded=1;fillColor=#64BBE2;strokeColor=none;strokeWidth=3;shadow=0;html=1;fontColor=#FFFFFF;" parent="1" vertex="1">
          <mxGeometry x="580" y="565" width="130" height="40" as="geometry" />
        </mxCell>
        <mxCell id="1374" value="Horse" style="rounded=1;fillColor=#64BBE2;strokeColor=none;strokeWidth=3;shadow=0;html=1;fontColor=#FFFFFF;" parent="1" vertex="1">
          <mxGeometry x="658.5" y="626.5" width="130" height="40" as="geometry" />
        </mxCell>
        <mxCell id="1375" value="Zebra" style="rounded=1;fillColor=#64BBE2;strokeColor=none;strokeWidth=3;shadow=0;html=1;fontColor=#FFFFFF;" parent="1" vertex="1">
          <mxGeometry x="710" y="686.5" width="130" height="40" as="geometry" />
        </mxCell>
        <mxCell id="1376" value="Gazelle" style="rounded=1;fillColor=#64BBE2;strokeColor=none;strokeWidth=3;shadow=0;html=1;fontColor=#FFFFFF;" parent="1" vertex="1">
          <mxGeometry x="690" y="816.5" width="130" height="40" as="geometry" />
        </mxCell>
        <mxCell id="1377" value="" style="edgeStyle=none;endArrow=none;strokeWidth=3;strokeColor=#64BBE2;html=1;" parent="1" source="1350" target="1376" edge="1">
          <mxGeometry x="-221.5" y="56.5" width="100" height="100" as="geometry">
            <mxPoint x="-241.5" y="581.5" as="sourcePoint" />
            <mxPoint x="-141.5" y="481.5" as="targetPoint" />
          </mxGeometry>
        </mxCell>
        <mxCell id="1378" value="" style="edgeStyle=none;endArrow=none;strokeWidth=3;strokeColor=#64BBE2;html=1;" parent="1" source="1350" target="1367" edge="1">
          <mxGeometry x="-221.5" y="56.5" width="100" height="100" as="geometry">
            <mxPoint x="-241.5" y="581.5" as="sourcePoint" />
            <mxPoint x="-141.5" y="481.5" as="targetPoint" />
          </mxGeometry>
        </mxCell>
        <mxCell id="1379" value="" style="edgeStyle=none;endArrow=none;strokeWidth=3;strokeColor=#64BBE2;html=1;" parent="1" source="1350" target="1358" edge="1">
          <mxGeometry x="-221.5" y="56.5" width="100" height="100" as="geometry">
            <mxPoint x="-241.5" y="581.5" as="sourcePoint" />
            <mxPoint x="-141.5" y="481.5" as="targetPoint" />
          </mxGeometry>
        </mxCell>
        <mxCell id="1380" value="" style="edgeStyle=none;endArrow=none;strokeWidth=3;strokeColor=#64BBE2;html=1;" parent="1" source="1350" target="1368" edge="1">
          <mxGeometry x="-221.5" y="56.5" width="100" height="100" as="geometry">
            <mxPoint x="-241.5" y="581.5" as="sourcePoint" />
            <mxPoint x="-141.5" y="481.5" as="targetPoint" />
          </mxGeometry>
        </mxCell>
        <mxCell id="1381" value="" style="edgeStyle=none;endArrow=none;strokeWidth=3;strokeColor=#64BBE2;html=1;" parent="1" source="1350" target="1369" edge="1">
          <mxGeometry x="-221.5" y="56.5" width="100" height="100" as="geometry">
            <mxPoint x="-241.5" y="581.5" as="sourcePoint" />
            <mxPoint x="-141.5" y="481.5" as="targetPoint" />
          </mxGeometry>
        </mxCell>
        <mxCell id="1382" value="" style="edgeStyle=none;endArrow=none;strokeWidth=3;strokeColor=#64BBE2;html=1;" parent="1" source="1350" target="1370" edge="1">
          <mxGeometry x="-221.5" y="56.5" width="100" height="100" as="geometry">
            <mxPoint x="-241.5" y="581.5" as="sourcePoint" />
            <mxPoint x="-141.5" y="481.5" as="targetPoint" />
          </mxGeometry>
        </mxCell>
        <mxCell id="1383" value="" style="edgeStyle=none;endArrow=none;strokeWidth=3;strokeColor=#64BBE2;html=1;" parent="1" source="1350" target="1371" edge="1">
          <mxGeometry x="-221.5" y="56.5" width="100" height="100" as="geometry">
            <mxPoint x="-241.5" y="581.5" as="sourcePoint" />
            <mxPoint x="-141.5" y="481.5" as="targetPoint" />
          </mxGeometry>
        </mxCell>
        <mxCell id="1384" value="" style="edgeStyle=none;endArrow=none;strokeWidth=3;strokeColor=#64BBE2;html=1;" parent="1" source="1350" target="1372" edge="1">
          <mxGeometry x="-221.5" y="56.5" width="100" height="100" as="geometry">
            <mxPoint x="-241.5" y="581.5" as="sourcePoint" />
            <mxPoint x="-141.5" y="481.5" as="targetPoint" />
          </mxGeometry>
        </mxCell>
        <mxCell id="1385" value="" style="edgeStyle=none;endArrow=none;strokeWidth=3;strokeColor=#64BBE2;html=1;" parent="1" source="1350" target="1373" edge="1">
          <mxGeometry x="-221.5" y="56.5" width="100" height="100" as="geometry">
            <mxPoint x="-241.5" y="581.5" as="sourcePoint" />
            <mxPoint x="-141.5" y="481.5" as="targetPoint" />
          </mxGeometry>
        </mxCell>
        <mxCell id="1387" value="" style="edgeStyle=none;endArrow=none;strokeWidth=3;strokeColor=#64BBE2;html=1;" parent="1" source="1350" target="1375" edge="1">
          <mxGeometry x="-221.5" y="56.5" width="100" height="100" as="geometry">
            <mxPoint x="-241.5" y="581.5" as="sourcePoint" />
            <mxPoint x="-141.5" y="481.5" as="targetPoint" />
          </mxGeometry>
        </mxCell>
        <mxCell id="1388" value="Bee" style="rounded=1;fillColor=#f5af58;strokeColor=none;strokeWidth=3;shadow=0;html=1;fontColor=#FFFFFF;" parent="1" vertex="1">
          <mxGeometry x="850" y="530" width="120" height="40" as="geometry" />
        </mxCell>
        <mxCell id="1389" value="Hornet" style="rounded=1;fillColor=#f5af58;strokeColor=none;strokeWidth=3;shadow=0;html=1;fontColor=#FFFFFF;" parent="1" vertex="1">
          <mxGeometry x="840" y="460" width="120" height="40" as="geometry" />
        </mxCell>
        <mxCell id="1390" value="Fly" style="rounded=1;fillColor=#f5af58;strokeColor=none;strokeWidth=3;shadow=0;html=1;fontColor=#FFFFFF;" parent="1" vertex="1">
          <mxGeometry x="860" y="390" width="120" height="40" as="geometry" />
        </mxCell>
        <mxCell id="1391" value="Termite" style="rounded=1;fillColor=#f5af58;strokeColor=none;strokeWidth=3;shadow=0;html=1;fontColor=#FFFFFF;" parent="1" vertex="1">
          <mxGeometry x="900" y="330" width="120" height="40" as="geometry" />
        </mxCell>
        <mxCell id="1392" value="Mantis" style="rounded=1;fillColor=#f5af58;strokeColor=none;strokeWidth=3;shadow=0;html=1;fontColor=#FFFFFF;" parent="1" vertex="1">
          <mxGeometry x="970" y="270" width="120" height="40" as="geometry" />
        </mxCell>
        <mxCell id="1393" value="Ladybug" style="rounded=1;fillColor=#f5af58;strokeColor=none;strokeWidth=3;shadow=0;html=1;fontColor=#FFFFFF;" parent="1" vertex="1">
          <mxGeometry x="1100" y="270" width="120" height="40" as="geometry" />
        </mxCell>
        <mxCell id="1394" value="Butterfly" style="rounded=1;fillColor=#f5af58;strokeColor=none;strokeWidth=3;shadow=0;html=1;fontColor=#FFFFFF;" parent="1" vertex="1">
          <mxGeometry x="1170" y="330" width="120" height="40" as="geometry" />
        </mxCell>
        <mxCell id="1395" value="Flea" style="rounded=1;fillColor=#f5af58;strokeColor=none;strokeWidth=3;shadow=0;html=1;fontColor=#FFFFFF;" parent="1" vertex="1">
          <mxGeometry x="1220" y="390" width="120" height="40" as="geometry" />
        </mxCell>
        <mxCell id="1396" value="Mosquito" style="rounded=1;fillColor=#f5af58;strokeColor=none;strokeWidth=3;shadow=0;html=1;fontColor=#FFFFFF;" parent="1" vertex="1">
          <mxGeometry x="1235" y="460" width="120" height="40" as="geometry" />
        </mxCell>
        <mxCell id="1397" value="Spider" style="rounded=1;fillColor=#f5af58;strokeColor=none;strokeWidth=3;shadow=0;html=1;fontColor=#FFFFFF;" parent="1" vertex="1">
          <mxGeometry x="1230" y="520" width="120" height="40" as="geometry" />
        </mxCell>
        <mxCell id="1398" value="Bumblebee" style="rounded=1;fillColor=#f5af58;strokeColor=none;strokeWidth=3;shadow=0;html=1;fontColor=#FFFFFF;" parent="1" vertex="1">
          <mxGeometry x="1175" y="590" width="120" height="40" as="geometry" />
        </mxCell>
        <mxCell id="1399" value="" style="edgeStyle=none;endArrow=none;strokeWidth=3;strokeColor=#F5AF58;html=1;" parent="1" source="1351" target="1357" edge="1">
          <mxGeometry x="3.5" y="21.5" width="100" height="100" as="geometry">
            <mxPoint x="-60" y="310" as="sourcePoint" />
            <mxPoint x="40" y="210" as="targetPoint" />
          </mxGeometry>
        </mxCell>
        <mxCell id="1400" value="" style="edgeStyle=none;endArrow=none;strokeWidth=3;strokeColor=#F5AF58;html=1;" parent="1" source="1351" target="1388" edge="1">
          <mxGeometry x="3.5" y="21.5" width="100" height="100" as="geometry">
            <mxPoint x="-60" y="310" as="sourcePoint" />
            <mxPoint x="40" y="210" as="targetPoint" />
          </mxGeometry>
        </mxCell>
        <mxCell id="1401" value="" style="edgeStyle=none;endArrow=none;strokeWidth=3;strokeColor=#F5AF58;html=1;" parent="1" source="1351" target="1389" edge="1">
          <mxGeometry x="3.5" y="21.5" width="100" height="100" as="geometry">
            <mxPoint x="-60" y="310" as="sourcePoint" />
            <mxPoint x="40" y="210" as="targetPoint" />
          </mxGeometry>
        </mxCell>
        <mxCell id="1402" value="" style="edgeStyle=none;endArrow=none;strokeWidth=3;strokeColor=#F5AF58;html=1;" parent="1" source="1351" target="1390" edge="1">
          <mxGeometry x="3.5" y="21.5" width="100" height="100" as="geometry">
            <mxPoint x="-60" y="310" as="sourcePoint" />
            <mxPoint x="40" y="210" as="targetPoint" />
          </mxGeometry>
        </mxCell>
        <mxCell id="1403" value="" style="edgeStyle=none;endArrow=none;strokeWidth=3;strokeColor=#F5AF58;html=1;" parent="1" source="1351" target="1391" edge="1">
          <mxGeometry x="3.5" y="21.5" width="100" height="100" as="geometry">
            <mxPoint x="-60" y="310" as="sourcePoint" />
            <mxPoint x="40" y="210" as="targetPoint" />
          </mxGeometry>
        </mxCell>
        <mxCell id="1404" value="" style="edgeStyle=none;endArrow=none;strokeWidth=3;strokeColor=#F5AF58;html=1;" parent="1" source="1351" target="1392" edge="1">
          <mxGeometry x="3.5" y="21.5" width="100" height="100" as="geometry">
            <mxPoint x="-60" y="310" as="sourcePoint" />
            <mxPoint x="40" y="210" as="targetPoint" />
          </mxGeometry>
        </mxCell>
        <mxCell id="1405" value="" style="edgeStyle=none;endArrow=none;strokeWidth=3;strokeColor=#F5AF58;html=1;" parent="1" source="1351" target="1393" edge="1">
          <mxGeometry x="3.5" y="21.5" width="100" height="100" as="geometry">
            <mxPoint x="-60" y="310" as="sourcePoint" />
            <mxPoint x="40" y="210" as="targetPoint" />
          </mxGeometry>
        </mxCell>
        <mxCell id="1406" value="" style="edgeStyle=none;endArrow=none;strokeWidth=3;strokeColor=#F5AF58;html=1;" parent="1" source="1351" target="1394" edge="1">
          <mxGeometry x="3.5" y="21.5" width="100" height="100" as="geometry">
            <mxPoint x="-60" y="310" as="sourcePoint" />
            <mxPoint x="40" y="210" as="targetPoint" />
          </mxGeometry>
        </mxCell>
        <mxCell id="1407" value="" style="edgeStyle=none;endArrow=none;strokeWidth=3;strokeColor=#F5AF58;html=1;" parent="1" source="1351" target="1395" edge="1">
          <mxGeometry x="3.5" y="21.5" width="100" height="100" as="geometry">
            <mxPoint x="-60" y="310" as="sourcePoint" />
            <mxPoint x="40" y="210" as="targetPoint" />
          </mxGeometry>
        </mxCell>
        <mxCell id="1408" value="" style="edgeStyle=none;endArrow=none;strokeWidth=3;strokeColor=#F5AF58;html=1;" parent="1" source="1351" target="1396" edge="1">
          <mxGeometry x="3.5" y="21.5" width="100" height="100" as="geometry">
            <mxPoint x="-60" y="310" as="sourcePoint" />
            <mxPoint x="40" y="210" as="targetPoint" />
          </mxGeometry>
        </mxCell>
        <mxCell id="1409" value="" style="edgeStyle=none;endArrow=none;strokeWidth=3;strokeColor=#F5AF58;html=1;" parent="1" source="1351" target="1397" edge="1">
          <mxGeometry x="3.5" y="21.5" width="100" height="100" as="geometry">
            <mxPoint x="-60" y="310" as="sourcePoint" />
            <mxPoint x="40" y="210" as="targetPoint" />
          </mxGeometry>
        </mxCell>
        <mxCell id="1410" value="" style="edgeStyle=none;endArrow=none;strokeWidth=3;strokeColor=#F5AF58;html=1;" parent="1" source="1351" target="1398" edge="1">
          <mxGeometry x="3.5" y="21.5" width="100" height="100" as="geometry">
            <mxPoint x="-60" y="310" as="sourcePoint" />
            <mxPoint x="40" y="210" as="targetPoint" />
          </mxGeometry>
        </mxCell>
        <mxCell id="1411" value="Eagle" style="rounded=1;fillColor=#f08e81;strokeColor=none;strokeWidth=3;shadow=0;html=1;fontColor=#FFFFFF;" parent="1" vertex="1">
          <mxGeometry x="1460" y="915" width="120" height="40" as="geometry" />
        </mxCell>
        <mxCell id="1412" value="Pigeon" style="rounded=1;fillColor=#f08e81;strokeColor=none;strokeWidth=3;shadow=0;html=1;fontColor=#FFFFFF;" parent="1" vertex="1">
          <mxGeometry x="1795" y="800" width="120" height="40" as="geometry" />
        </mxCell>
        <mxCell id="1413" value="Hawk" style="rounded=1;fillColor=#f08e81;strokeColor=none;strokeWidth=3;shadow=0;html=1;fontColor=#FFFFFF;" parent="1" vertex="1">
          <mxGeometry x="1340" y="835" width="120" height="40" as="geometry" />
        </mxCell>
        <mxCell id="1414" value="Falcon" style="rounded=1;fillColor=#f08e81;strokeColor=none;strokeWidth=3;shadow=0;html=1;fontColor=#FFFFFF;" parent="1" vertex="1">
          <mxGeometry x="1370" y="770" width="120" height="40" as="geometry" />
        </mxCell>
        <mxCell id="1415" value="Sparrow" style="rounded=1;fillColor=#f08e81;strokeColor=none;strokeWidth=3;shadow=0;html=1;fontColor=#FFFFFF;" parent="1" vertex="1">
          <mxGeometry x="1390" y="690" width="120" height="40" as="geometry" />
        </mxCell>
        <mxCell id="1416" value="Stork" style="rounded=1;fillColor=#f08e81;strokeColor=none;strokeWidth=3;shadow=0;html=1;fontColor=#FFFFFF;" parent="1" vertex="1">
          <mxGeometry x="1480" y="620" width="120" height="40" as="geometry" />
        </mxCell>
        <mxCell id="1417" value="Flamingo" style="rounded=1;fillColor=#f08e81;strokeColor=none;strokeWidth=3;shadow=0;html=1;fontColor=#FFFFFF;" parent="1" vertex="1">
          <mxGeometry x="1615" y="565" width="120" height="40" as="geometry" />
        </mxCell>
        <mxCell id="1418" value="Penguin" style="rounded=1;fillColor=#f08e81;strokeColor=none;strokeWidth=3;shadow=0;html=1;fontColor=#FFFFFF;" parent="1" vertex="1">
          <mxGeometry x="1710" y="650" width="120" height="40" as="geometry" />
        </mxCell>
        <mxCell id="1419" value="Owl" style="rounded=1;fillColor=#f08e81;strokeColor=none;strokeWidth=3;shadow=0;html=1;fontColor=#FFFFFF;" parent="1" vertex="1">
          <mxGeometry x="1765" y="720" width="120" height="40" as="geometry" />
        </mxCell>
        <mxCell id="1420" value="Albatross" style="rounded=1;fillColor=#f08e81;strokeColor=none;strokeWidth=3;shadow=0;html=1;fontColor=#FFFFFF;" parent="1" vertex="1">
          <mxGeometry x="1540" y="975" width="120" height="40" as="geometry" />
        </mxCell>
        <mxCell id="1421" value="Pelican" style="rounded=1;fillColor=#f08e81;strokeColor=none;strokeWidth=3;shadow=0;html=1;fontColor=#FFFFFF;" parent="1" vertex="1">
          <mxGeometry x="1630" y="905" width="120" height="40" as="geometry" />
        </mxCell>
        <mxCell id="1422" value="Swallow" style="rounded=1;fillColor=#f08e81;strokeColor=none;strokeWidth=3;shadow=0;html=1;fontColor=#FFFFFF;" parent="1" vertex="1">
          <mxGeometry x="1725" y="860" width="120" height="40" as="geometry" />
        </mxCell>
        <mxCell id="1423" value="" style="edgeStyle=none;endArrow=none;strokeWidth=3;strokeColor=#F08E81;html=1;" parent="1" source="1352" target="1411" edge="1">
          <mxGeometry x="31" y="106.5" width="100" height="100" as="geometry">
            <mxPoint x="-120" y="605" as="sourcePoint" />
            <mxPoint x="-20" y="505" as="targetPoint" />
          </mxGeometry>
        </mxCell>
        <mxCell id="1424" value="" style="edgeStyle=none;endArrow=none;strokeWidth=3;strokeColor=#F08E81;html=1;" parent="1" source="1352" target="1413" edge="1">
          <mxGeometry x="31" y="106.5" width="100" height="100" as="geometry">
            <mxPoint x="-120" y="605" as="sourcePoint" />
            <mxPoint x="-20" y="505" as="targetPoint" />
          </mxGeometry>
        </mxCell>
        <mxCell id="1425" value="" style="edgeStyle=none;endArrow=none;strokeWidth=3;strokeColor=#F08E81;html=1;" parent="1" source="1352" target="1414" edge="1">
          <mxGeometry x="31" y="106.5" width="100" height="100" as="geometry">
            <mxPoint x="-120" y="605" as="sourcePoint" />
            <mxPoint x="-20" y="505" as="targetPoint" />
          </mxGeometry>
        </mxCell>
        <mxCell id="1426" value="" style="edgeStyle=none;endArrow=none;strokeWidth=3;strokeColor=#F08E81;html=1;" parent="1" source="1352" target="1415" edge="1">
          <mxGeometry x="31" y="106.5" width="100" height="100" as="geometry">
            <mxPoint x="-120" y="605" as="sourcePoint" />
            <mxPoint x="-20" y="505" as="targetPoint" />
          </mxGeometry>
        </mxCell>
        <mxCell id="1427" value="" style="edgeStyle=none;endArrow=none;strokeWidth=3;strokeColor=#F08E81;html=1;" parent="1" source="1352" target="1416" edge="1">
          <mxGeometry x="31" y="106.5" width="100" height="100" as="geometry">
            <mxPoint x="-120" y="605" as="sourcePoint" />
            <mxPoint x="-20" y="505" as="targetPoint" />
          </mxGeometry>
        </mxCell>
        <mxCell id="1428" value="" style="edgeStyle=none;endArrow=none;strokeWidth=3;strokeColor=#F08E81;html=1;" parent="1" source="1352" target="1417" edge="1">
          <mxGeometry x="31" y="106.5" width="100" height="100" as="geometry">
            <mxPoint x="-120" y="605" as="sourcePoint" />
            <mxPoint x="-20" y="505" as="targetPoint" />
          </mxGeometry>
        </mxCell>
        <mxCell id="1429" value="" style="edgeStyle=none;endArrow=none;strokeWidth=3;strokeColor=#F08E81;html=1;" parent="1" source="1352" target="1418" edge="1">
          <mxGeometry x="31" y="106.5" width="100" height="100" as="geometry">
            <mxPoint x="-120" y="605" as="sourcePoint" />
            <mxPoint x="-20" y="505" as="targetPoint" />
          </mxGeometry>
        </mxCell>
        <mxCell id="1430" value="" style="edgeStyle=none;endArrow=none;strokeWidth=3;strokeColor=#F08E81;html=1;" parent="1" source="1352" target="1419" edge="1">
          <mxGeometry x="31" y="106.5" width="100" height="100" as="geometry">
            <mxPoint x="-120" y="605" as="sourcePoint" />
            <mxPoint x="-20" y="505" as="targetPoint" />
          </mxGeometry>
        </mxCell>
        <mxCell id="1431" value="" style="edgeStyle=none;endArrow=none;strokeWidth=3;strokeColor=#F08E81;html=1;" parent="1" source="1352" target="1412" edge="1">
          <mxGeometry x="31" y="106.5" width="100" height="100" as="geometry">
            <mxPoint x="-120" y="605" as="sourcePoint" />
            <mxPoint x="-20" y="505" as="targetPoint" />
          </mxGeometry>
        </mxCell>
        <mxCell id="1432" value="" style="edgeStyle=none;endArrow=none;strokeWidth=3;strokeColor=#F08E81;html=1;" parent="1" source="1352" target="1422" edge="1">
          <mxGeometry x="31" y="106.5" width="100" height="100" as="geometry">
            <mxPoint x="-120" y="605" as="sourcePoint" />
            <mxPoint x="-20" y="505" as="targetPoint" />
          </mxGeometry>
        </mxCell>
        <mxCell id="1433" value="" style="edgeStyle=none;endArrow=none;strokeWidth=3;strokeColor=#F08E81;html=1;" parent="1" source="1352" target="1421" edge="1">
          <mxGeometry x="31" y="106.5" width="100" height="100" as="geometry">
            <mxPoint x="-120" y="605" as="sourcePoint" />
            <mxPoint x="-20" y="505" as="targetPoint" />
          </mxGeometry>
        </mxCell>
        <mxCell id="1434" value="" style="edgeStyle=none;endArrow=none;strokeWidth=3;strokeColor=#F08E81;html=1;" parent="1" source="1352" target="1420" edge="1">
          <mxGeometry x="31" y="106.5" width="100" height="100" as="geometry">
            <mxPoint x="-120" y="605" as="sourcePoint" />
            <mxPoint x="-20" y="505" as="targetPoint" />
          </mxGeometry>
        </mxCell>
        <mxCell id="1439" value="Whale" style="rounded=1;fillColor=#64BBE2;strokeColor=none;strokeWidth=3;shadow=0;html=1;fontColor=#FFFFFF;" parent="1" vertex="1">
          <mxGeometry x="558.5" y="891.5" width="120" height="40" as="geometry" />
        </mxCell>
        <mxCell id="1514" style="edgeStyle=orthogonalEdgeStyle;rounded=0;html=1;exitX=0.75;exitY=0;entryX=0.75;entryY=0;startArrow=none;startFill=0;endArrow=block;endFill=1;jettySize=auto;orthogonalLoop=1;strokeColor=#12aab5;strokeWidth=6;fontSize=20;fontColor=#2F5B7C;" parent="1" source="1414" target="1414" edge="1">
          <mxGeometry relative="1" as="geometry" />
        </mxCell>
        <mxCell id="1515" value="AI@Greece" style="ellipse;whiteSpace=wrap;html=1;shadow=0;fontFamily=Helvetica;fontSize=30;fontColor=#2F5B7C;align=center;strokeColor=#2F5B7C;strokeWidth=6;fillColor=#FFFFFF;fontStyle=1;gradientColor=none;" parent="1" vertex="1">
          <mxGeometry x="961" y="770" width="179" height="176.5" as="geometry" />
        </mxCell>
        <mxCell id="1516" value="NGO" style="ellipse;whiteSpace=wrap;html=1;shadow=0;fontFamily=Helvetica;fontSize=20;fontColor=#FFFFFF;align=center;strokeWidth=3;fillColor=#736ca8;strokeColor=none;" parent="1" vertex="1">
          <mxGeometry x="1014.25" y="1175" width="120" height="120" as="geometry" />
        </mxCell>
        <mxCell id="1517" value="Organisation" style="rounded=1;fillColor=#a29dc5;strokeColor=none;strokeWidth=3;shadow=0;html=1;fontColor=#FFFFFF;" parent="1" vertex="1">
          <mxGeometry x="904.25" y="1075" width="120" height="40" as="geometry" />
        </mxCell>
        <mxCell id="1518" value="Oak" style="rounded=1;fillColor=#a29dc5;strokeColor=none;strokeWidth=3;shadow=0;html=1;fontColor=#FFFFFF;" parent="1" vertex="1">
          <mxGeometry x="1011.75" y="1015" width="120" height="40" as="geometry" />
        </mxCell>
        <mxCell id="1519" value="Birch" style="rounded=1;fillColor=#a29dc5;strokeColor=none;strokeWidth=3;shadow=0;html=1;fontColor=#FFFFFF;" parent="1" vertex="1">
          <mxGeometry x="1151.75" y="1025" width="120" height="40" as="geometry" />
        </mxCell>
        <mxCell id="1520" value="Silverfern" style="rounded=1;fillColor=#a29dc5;strokeColor=none;strokeWidth=3;shadow=0;html=1;fontColor=#FFFFFF;" parent="1" vertex="1">
          <mxGeometry x="1216.75" y="1095" width="120" height="40" as="geometry" />
        </mxCell>
        <mxCell id="1521" value="Personal &#xa;Development" style="rounded=1;fillColor=#a29dc5;strokeColor=none;strokeWidth=3;shadow=0;html=1;fontColor=#FFFFFF;" parent="1" vertex="1">
          <mxGeometry x="1241.75" y="1175" width="120" height="40" as="geometry" />
        </mxCell>
        <mxCell id="1522" value="Pine" style="rounded=1;fillColor=#a29dc5;strokeColor=none;strokeWidth=3;shadow=0;html=1;fontColor=#FFFFFF;" parent="1" vertex="1">
          <mxGeometry x="769.25" y="1095" width="120" height="40" as="geometry" />
        </mxCell>
        <mxCell id="1523" value="Lime" style="rounded=1;fillColor=#a29dc5;strokeColor=none;strokeWidth=3;shadow=0;html=1;fontColor=#FFFFFF;" parent="1" vertex="1">
          <mxGeometry x="1174.25" y="1285" width="120" height="40" as="geometry" />
        </mxCell>
        <mxCell id="1524" value="Chestnut" style="rounded=1;fillColor=#a29dc5;strokeColor=none;strokeWidth=3;shadow=0;html=1;fontColor=#FFFFFF;" parent="1" vertex="1">
          <mxGeometry x="1124.25" y="1345" width="120" height="40" as="geometry" />
        </mxCell>
        <mxCell id="1525" value="Beech" style="rounded=1;fillColor=#a29dc5;strokeColor=none;strokeWidth=3;shadow=0;html=1;fontColor=#FFFFFF;" parent="1" vertex="1">
          <mxGeometry x="984.25" y="1345" width="120" height="40" as="geometry" />
        </mxCell>
        <mxCell id="1526" value="Poplar" style="rounded=1;fillColor=#a29dc5;strokeColor=none;strokeWidth=3;shadow=0;html=1;fontColor=#FFFFFF;" parent="1" vertex="1">
          <mxGeometry x="844.25" y="1310" width="120" height="40" as="geometry" />
        </mxCell>
        <mxCell id="1527" value="Willow" style="rounded=1;fillColor=#a29dc5;strokeColor=none;strokeWidth=3;shadow=0;html=1;fontColor=#FFFFFF;" parent="1" vertex="1">
          <mxGeometry x="739.25" y="1255" width="120" height="40" as="geometry" />
        </mxCell>
        <mxCell id="1528" value="" style="edgeStyle=none;endArrow=none;strokeWidth=3;strokeColor=#A29DC5;html=1;" parent="1" source="1516" target="1517" edge="1">
          <mxGeometry x="-1498" y="-303.5" width="100" height="100" as="geometry">
            <mxPoint x="-795.75" y="250" as="sourcePoint" />
            <mxPoint x="-695.75" y="150" as="targetPoint" />
          </mxGeometry>
        </mxCell>
        <mxCell id="1529" value="Acacia" style="rounded=1;fillColor=#a29dc5;strokeColor=none;strokeWidth=3;shadow=0;html=1;fontColor=#FFFFFF;" parent="1" vertex="1">
          <mxGeometry x="779.25" y="1185" width="120" height="40" as="geometry" />
        </mxCell>
        <mxCell id="1530" value="" style="edgeStyle=none;endArrow=none;strokeWidth=3;strokeColor=#A29DC5;html=1;" parent="1" source="1516" target="1518" edge="1">
          <mxGeometry x="-1498" y="-303.5" width="100" height="100" as="geometry">
            <mxPoint x="-795.75" y="250" as="sourcePoint" />
            <mxPoint x="-695.75" y="150" as="targetPoint" />
          </mxGeometry>
        </mxCell>
        <mxCell id="1531" value="" style="edgeStyle=none;endArrow=none;strokeWidth=3;strokeColor=#A29DC5;html=1;" parent="1" source="1516" target="1519" edge="1">
          <mxGeometry x="-1498" y="-303.5" width="100" height="100" as="geometry">
            <mxPoint x="-795.75" y="250" as="sourcePoint" />
            <mxPoint x="-695.75" y="150" as="targetPoint" />
          </mxGeometry>
        </mxCell>
        <mxCell id="1532" value="" style="edgeStyle=none;endArrow=none;strokeWidth=3;strokeColor=#A29DC5;html=1;" parent="1" source="1516" target="1520" edge="1">
          <mxGeometry x="-1498" y="-303.5" width="100" height="100" as="geometry">
            <mxPoint x="-795.75" y="250" as="sourcePoint" />
            <mxPoint x="-695.75" y="150" as="targetPoint" />
          </mxGeometry>
        </mxCell>
        <mxCell id="1533" value="" style="edgeStyle=none;endArrow=none;strokeWidth=3;strokeColor=#A29DC5;html=1;" parent="1" source="1516" target="1521" edge="1">
          <mxGeometry x="-1498" y="-303.5" width="100" height="100" as="geometry">
            <mxPoint x="-795.75" y="250" as="sourcePoint" />
            <mxPoint x="-695.75" y="150" as="targetPoint" />
          </mxGeometry>
        </mxCell>
        <mxCell id="1534" value="" style="edgeStyle=none;endArrow=none;strokeWidth=3;strokeColor=#A29DC5;html=1;" parent="1" source="1516" target="1522" edge="1">
          <mxGeometry x="-1498" y="-303.5" width="100" height="100" as="geometry">
            <mxPoint x="-795.75" y="250" as="sourcePoint" />
            <mxPoint x="-695.75" y="150" as="targetPoint" />
          </mxGeometry>
        </mxCell>
        <mxCell id="1535" value="" style="edgeStyle=none;endArrow=none;strokeWidth=3;strokeColor=#A29DC5;html=1;" parent="1" source="1516" target="1523" edge="1">
          <mxGeometry x="-1498" y="-303.5" width="100" height="100" as="geometry">
            <mxPoint x="-795.75" y="250" as="sourcePoint" />
            <mxPoint x="-695.75" y="150" as="targetPoint" />
          </mxGeometry>
        </mxCell>
        <mxCell id="1536" value="" style="edgeStyle=none;endArrow=none;strokeWidth=3;strokeColor=#A29DC5;html=1;" parent="1" source="1516" target="1524" edge="1">
          <mxGeometry x="-1498" y="-303.5" width="100" height="100" as="geometry">
            <mxPoint x="-795.75" y="250" as="sourcePoint" />
            <mxPoint x="-695.75" y="150" as="targetPoint" />
          </mxGeometry>
        </mxCell>
        <mxCell id="1537" value="" style="edgeStyle=none;endArrow=none;strokeWidth=3;strokeColor=#A29DC5;html=1;" parent="1" source="1516" target="1525" edge="1">
          <mxGeometry x="-1498" y="-303.5" width="100" height="100" as="geometry">
            <mxPoint x="-795.75" y="250" as="sourcePoint" />
            <mxPoint x="-695.75" y="150" as="targetPoint" />
          </mxGeometry>
        </mxCell>
        <mxCell id="1538" value="" style="edgeStyle=none;endArrow=none;strokeWidth=3;strokeColor=#A29DC5;html=1;" parent="1" source="1516" target="1526" edge="1">
          <mxGeometry x="-1498" y="-303.5" width="100" height="100" as="geometry">
            <mxPoint x="-795.75" y="250" as="sourcePoint" />
            <mxPoint x="-695.75" y="150" as="targetPoint" />
          </mxGeometry>
        </mxCell>
        <mxCell id="1539" value="" style="edgeStyle=none;endArrow=none;strokeWidth=3;strokeColor=#A29DC5;html=1;" parent="1" source="1516" target="1527" edge="1">
          <mxGeometry x="-1498" y="-303.5" width="100" height="100" as="geometry">
            <mxPoint x="-795.75" y="250" as="sourcePoint" />
            <mxPoint x="-695.75" y="150" as="targetPoint" />
          </mxGeometry>
        </mxCell>
        <mxCell id="1540" value="" style="edgeStyle=none;endArrow=none;strokeWidth=3;strokeColor=#A29DC5;html=1;" parent="1" source="1516" target="1529" edge="1">
          <mxGeometry x="-1498" y="-303.5" width="100" height="100" as="geometry">
            <mxPoint x="-795.75" y="250" as="sourcePoint" />
            <mxPoint x="-695.75" y="150" as="targetPoint" />
          </mxGeometry>
        </mxCell>
        <mxCell id="1542" style="edgeStyle=none;rounded=0;html=1;exitX=0.5;exitY=1;endArrow=none;endFill=0;jettySize=auto;orthogonalLoop=1;strokeColor=#736CA8;strokeWidth=2;fillColor=#64bbe2;fontSize=20;fontColor=#23445D;" parent="1" source="1529" target="1529" edge="1">
          <mxGeometry relative="1" as="geometry" />
        </mxCell>
        <mxCell id="104TM-tIM6dC0J846HSY-1542" value="" style="edgeStyle=none;endArrow=none;strokeWidth=3;strokeColor=#64BBE2;html=1;" parent="1" source="1350" target="1439" edge="1">
          <mxGeometry x="-221.5" y="56.5" width="100" height="100" as="geometry">
            <mxPoint x="541" y="817" as="sourcePoint" />
            <mxPoint x="486" y="902" as="targetPoint" />
          </mxGeometry>
        </mxCell>
      </root>
    </mxGraphModel>
  </diagram>
</mxfile>
